<svg width="101" height="100" viewBox="0 0 101 100" fill="none" xmlns="http://www.w3.org/2000/svg">
<g clip-path="url(#clip0_423_2117)">
<path d="M85.8552 14.6446C76.4116 5.2008 63.8556 0 50.5 0C37.1446 0 24.5884 5.2008 15.1446 14.6446C5.7008 24.0884 0.5 36.6446 0.5 50C0.5 63.3554 5.7008 75.9116 15.1446 85.3554C24.5884 94.7992 37.1446 100 50.5 100C63.8556 100 76.4116 94.7992 85.8552 85.3554C95.2992 75.9116 100.5 63.3554 100.5 50C100.5 36.6446 95.2992 24.0884 85.8552 14.6446ZM50.5 96.0159C25.1267 96.0159 4.48406 75.3733 4.48406 50C4.48406 24.6267 25.1267 3.98406 50.5 3.98406C75.8733 3.98406 96.5159 24.6267 96.5159 50C96.5159 75.3733 75.8733 96.0159 50.5 96.0159Z" fill="#0F43B4"/>
<path d="M50.4999 8.23901C36.3304 8.23901 24.8027 19.7667 24.8027 33.9362C24.8027 37.7806 27.9304 40.9083 31.7748 40.9083C35.6193 40.9083 38.747 37.7806 38.747 33.9362C38.747 27.4555 44.0193 22.1832 50.4999 22.1832C56.9804 22.1832 62.2529 27.4555 62.2529 33.9362C62.2529 40.4719 56.9804 45.7888 50.4999 45.7888C46.6555 45.7888 43.5278 48.9165 43.5278 52.7609V66.4623C43.5278 70.3067 46.6555 73.4344 50.4999 73.4344C54.3444 73.4344 57.4721 70.3065 57.4721 66.4625V58.7657C62.5069 57.3352 67.0497 54.351 70.3946 50.2472C74.1364 45.6563 76.1972 39.8637 76.1972 33.9362C76.1972 19.7667 64.6695 8.23901 50.4999 8.23901ZM55.0603 55.2633C54.143 55.4609 53.488 56.2721 53.488 57.2105V66.4621C53.488 68.1097 52.1476 69.4502 50.4999 69.4502C48.8523 69.4502 47.5119 68.1097 47.5119 66.4621V52.7607C47.5119 51.1131 48.8523 49.7727 50.4999 49.7727C59.1774 49.7727 66.237 42.6683 66.237 33.936C66.237 25.2585 59.1774 18.199 50.4999 18.199C41.8225 18.199 34.7629 25.2587 34.7629 33.936C34.7629 35.5836 33.4225 36.9241 31.7748 36.9241C30.1272 36.9241 28.7868 35.5836 28.7868 33.936C28.7868 21.9633 38.5272 12.2229 50.4999 12.2229C62.4727 12.2229 72.2131 21.9633 72.2131 33.936C72.2131 44.1516 64.9994 53.1209 55.0603 55.2633Z" fill="#0F43B4"/>
<path d="M50.4995 77.02C46.655 77.02 43.5273 80.1477 43.5273 83.9921V84.7889C43.5273 88.6334 46.655 91.7611 50.4995 91.7611C54.3439 91.7611 57.4716 88.6332 57.4716 84.7889V83.9921C57.4716 80.1477 54.3439 77.02 50.4995 77.02ZM53.4875 84.7889C53.4875 86.4366 52.1471 87.777 50.4995 87.777C48.8518 87.777 47.5114 86.4366 47.5114 84.7889V83.9921C47.5114 82.3445 48.8518 81.0041 50.4995 81.0041C52.1471 81.0041 53.4875 82.3445 53.4875 83.9921V84.7889Z" fill="#0F43B4"/>
<path d="M12.2689 57.9626C11.73 55.3608 11.4567 52.6818 11.4567 50.0001C11.4567 48.8999 10.5649 48.0081 9.46469 48.0081C8.36449 48.0081 7.47266 48.8999 7.47266 50.0001C7.47266 52.9527 7.77385 55.9037 8.36748 58.7706C8.5625 59.7116 9.39138 60.3591 10.3161 60.3591C10.4499 60.3591 10.586 60.3455 10.7223 60.3172C11.7995 60.0941 12.492 59.0399 12.2689 57.9626Z" fill="#0F43B4"/>
<path d="M34.9592 85.8284C26.1944 82.021 19.1411 75.1525 15.0984 66.4881C14.6333 65.4911 13.4476 65.06 12.451 65.5252C11.454 65.9903 11.0229 67.1756 11.4881 68.1726C15.9423 77.7194 23.7142 85.2873 33.3717 89.4825C33.6301 89.5949 33.8994 89.6481 34.1644 89.6481C34.9337 89.6481 35.6664 89.1999 35.9927 88.4491C36.4309 87.4399 35.9681 86.2666 34.9592 85.8284Z" fill="#0F43B4"/>
</g>
<defs>
<clipPath id="clip0_423_2117">
<rect width="100" height="100" fill="white" transform="translate(0.5)"/>
</clipPath>
</defs>
</svg>
